<svg width="50" height="87" viewBox="0 0 50 87" fill="none" xmlns="http://www.w3.org/2000/svg">
<path d="M26.5415 38.2292C15.6645 35.4021 12.1665 32.4792 12.1665 27.9271C12.1665 22.7042 17.0061 19.0625 25.104 19.0625C33.6332 19.0625 36.7957 23.1354 37.0832 29.125H47.6728C47.3374 20.8833 42.3061 13.3125 32.2915 10.8687V0.375H17.9165V10.725C8.6207 12.7375 1.1457 18.775 1.1457 28.0229C1.1457 39.0917 10.2978 44.6021 23.6665 47.8125C35.6457 50.6875 38.0415 54.9042 38.0415 59.3604C38.0415 62.6667 35.6936 67.9375 25.104 67.9375C15.2332 67.9375 11.352 63.5292 10.8249 57.875H0.283203C0.858203 68.3688 8.71654 74.2625 17.9165 76.2271V86.625H32.2915V76.3229C41.6353 74.55 49.0624 69.1354 49.0624 59.3125C49.0624 45.7042 37.4186 41.0562 26.5415 38.2292Z" fill="#FEFBFF"/>
</svg>
