<svg width="111" height="56" viewBox="0 0 111 56" fill="none" xmlns="http://www.w3.org/2000/svg">
<path d="M69.5071 55.9744L28.4107 44.2802V51.7697H0V0H40.8321L74.5286 12.6139C76.9072 13.4899 78.9113 14.9134 80.5411 16.8843C82.1708 18.8552 82.9857 21.6802 82.9857 25.3593H98.05C101.75 25.3593 104.833 26.6732 107.3 29.3011C109.767 31.929 111 35.4767 111 39.9441V43.3604L69.5071 55.9744ZM7.92857 43.886H20.35V7.88371H7.92857V43.886ZM68.9786 47.8279L102.807 37.579C102.279 35.9147 101.618 34.7759 100.825 34.1628C100.032 33.5496 99.1071 33.243 98.05 33.243H70.6964C68.0536 33.243 65.6089 33.0678 63.3625 32.7174C61.1161 32.367 58.9798 31.8852 56.9536 31.2721L46.25 27.9872L49.1571 20.3663L58.8036 23.5197C61.006 24.2205 63.0982 24.7023 65.0804 24.9651C67.0625 25.2279 70.2119 25.3593 74.5286 25.3593C74.5286 24.3081 74.3304 23.2789 73.9339 22.2715C73.5375 21.2641 72.8548 20.5415 71.8857 20.1035L39.5107 7.88371H28.4107V36.0023L68.9786 47.8279Z" fill="#F1F1F1"/>
</svg>
