<svg width="94" height="86" viewBox="0 0 94 86" fill="none" xmlns="http://www.w3.org/2000/svg">
<path d="M46.4688 79.1203C46.8229 79.1203 47.2302 79.0318 47.6906 78.8547C48.151 78.6776 48.5229 78.4474 48.8063 78.1641L84.6125 42.2516C85.5333 41.3307 86.224 40.2859 86.6844 39.1172C87.1448 37.9484 87.375 36.762 87.375 35.5578C87.375 34.3536 87.1448 33.1495 86.6844 31.9453C86.224 30.7411 85.5333 29.6786 84.6125 28.7578L65.4875 9.63281C64.5667 8.71198 63.5042 8.02135 62.3 7.56094C61.0958 7.10052 59.8917 6.87031 58.6875 6.87031C57.4833 6.87031 56.2969 7.10052 55.1281 7.56094C53.9594 8.02135 52.9146 8.71198 51.9938 9.63281L50.0813 11.5453L58.6875 20.2578C59.6083 21.2495 60.4229 22.4005 61.1312 23.7109C61.8396 25.0214 62.1937 26.4557 62.1937 28.0141C62.1937 30.7057 61.149 33.0786 59.0594 35.1328C56.9698 37.187 54.5792 38.2141 51.8875 38.2141C50.1167 38.2141 48.6469 37.9484 47.4781 37.4172C46.3094 36.8859 45.2292 36.1245 44.2375 35.1328L36.4812 27.3766L17.25 46.6078C16.8958 46.962 16.6479 47.3339 16.5062 47.7234C16.3646 48.113 16.2938 48.5203 16.2938 48.9453C16.2938 49.8661 16.5948 50.6276 17.1969 51.2297C17.799 51.8318 18.5604 52.1328 19.4813 52.1328C19.9062 52.1328 20.3135 52.0266 20.7031 51.8141C21.0927 51.6016 21.4292 51.3536 21.7125 51.0703L36.375 36.4078L40.8375 40.8703L26.2812 55.4266C25.9271 55.7807 25.6792 56.1703 25.5375 56.5953C25.3958 57.0203 25.325 57.4453 25.325 57.8703C25.325 58.7203 25.6437 59.4641 26.2812 60.1016C26.9188 60.7391 27.6625 61.0578 28.5125 61.0578C28.9375 61.0578 29.3448 60.9693 29.7344 60.7922C30.124 60.6151 30.4604 60.3849 30.7438 60.1016L45.4062 45.4391L49.8688 49.9016L35.3125 64.4578C35.0292 64.7411 34.799 65.113 34.6219 65.5734C34.4448 66.0339 34.3562 66.4766 34.3562 66.9016C34.3562 67.7516 34.675 68.4953 35.3125 69.1328C35.95 69.7703 36.6937 70.0891 37.5437 70.0891C37.9688 70.0891 38.3583 70.0182 38.7125 69.8766C39.0667 69.7349 39.4208 69.487 39.775 69.1328L54.4375 54.4703L58.9 58.9328L44.2375 73.5953C43.8833 73.9495 43.6354 74.3391 43.4938 74.7641C43.3521 75.1891 43.2812 75.5786 43.2812 75.9328C43.2812 76.9245 43.5646 77.7036 44.1312 78.2703C44.6979 78.837 45.4771 79.1203 46.4688 79.1203ZM46.4688 85.4953C44.1312 85.4953 42.0417 84.6276 40.2 82.8922C38.3583 81.1568 37.2604 79.0141 36.9062 76.4641C34.4979 76.1099 32.4792 75.1182 30.85 73.4891C29.2208 71.8599 28.2292 69.8411 27.875 67.4328C25.4667 67.0786 23.4656 66.0693 21.8719 64.4047C20.2781 62.7401 19.3042 60.7391 18.95 58.4016C16.3292 58.0474 14.1687 56.9849 12.4688 55.2141C10.7688 53.4432 9.91875 51.3182 9.91875 48.8391C9.91875 47.6349 10.149 46.4307 10.6094 45.2266C11.0698 44.0224 11.7604 42.9599 12.6812 42.0391L36.4812 18.2391L48.1687 29.9266C48.7354 30.4932 49.3552 30.9359 50.0281 31.2547C50.701 31.5734 51.3563 31.7328 51.9938 31.7328C52.9146 31.7328 53.7823 31.3255 54.5969 30.5109C55.4115 29.6964 55.8187 28.8286 55.8187 27.9078C55.8187 27.4828 55.6948 27.0047 55.4469 26.4734C55.199 25.9422 54.7917 25.3932 54.225 24.8266L39.0312 9.63281C38.1104 8.71198 37.0479 8.02135 35.8438 7.56094C34.6396 7.10052 33.4354 6.87031 32.2312 6.87031C31.0271 6.87031 29.8406 7.10052 28.6719 7.56094C27.5031 8.02135 26.4583 8.71198 25.5375 9.63281L9.3875 25.7828C8.39583 26.7745 7.70521 27.8193 7.31562 28.9172C6.92604 30.0151 6.69583 31.237 6.625 32.5828C6.55417 33.9995 6.81979 35.363 7.42188 36.6734C8.02396 37.9839 8.75 39.1703 9.6 40.2328L5.03125 44.8016C3.61458 43.2432 2.46354 41.3661 1.57812 39.1703C0.692708 36.9745 0.25 34.7432 0.25 32.4766C0.25 30.3516 0.657292 28.3151 1.47188 26.3672C2.28646 24.4193 3.4375 22.7016 4.925 21.2141L20.9688 5.17031C22.5271 3.61198 24.2979 2.46094 26.2812 1.71719C28.2646 0.973437 30.2833 0.601562 32.3375 0.601562C34.3917 0.601562 36.3927 0.973437 38.3406 1.71719C40.2885 2.46094 42.0417 3.61198 43.6 5.17031L45.5125 7.08281L47.425 5.17031C48.9833 3.61198 50.7542 2.46094 52.7375 1.71719C54.7208 0.973437 56.7396 0.601562 58.7937 0.601562C60.8479 0.601562 62.849 0.973437 64.7969 1.71719C66.7448 2.46094 68.4979 3.61198 70.0562 5.17031L89.075 24.1891C90.6333 25.7474 91.8021 27.5182 92.5813 29.5016C93.3604 31.4849 93.75 33.5036 93.75 35.5578C93.75 37.612 93.3604 39.613 92.5813 41.5609C91.8021 43.5089 90.6333 45.262 89.075 46.8203L53.2688 82.6266C52.3479 83.5474 51.3031 84.2557 50.1344 84.7516C48.9656 85.2474 47.7438 85.4953 46.4688 85.4953Z" fill="#FEFBFF"/>
</svg>
