<svg width="19" height="18" viewBox="0 0 19 18" fill="none" xmlns="http://www.w3.org/2000/svg">
<path d="M16.6645 18L10.3645 11.7C9.86445 12.1 9.28945 12.4167 8.63945 12.65C7.98945 12.8833 7.29779 13 6.56445 13C4.74779 13 3.21045 12.371 1.95245 11.113C0.693787 9.85433 0.0644531 8.31667 0.0644531 6.5C0.0644531 4.68333 0.693787 3.14567 1.95245 1.887C3.21045 0.629 4.74779 0 6.56445 0C8.38112 0 9.91879 0.629 11.1775 1.887C12.4355 3.14567 13.0645 4.68333 13.0645 6.5C13.0645 7.23333 12.9478 7.925 12.7145 8.575C12.4811 9.225 12.1645 9.8 11.7645 10.3L18.0645 16.6L16.6645 18ZM6.56445 11C7.81445 11 8.87712 10.5627 9.75245 9.688C10.6271 8.81267 11.0645 7.75 11.0645 6.5C11.0645 5.25 10.6271 4.18733 9.75245 3.312C8.87712 2.43733 7.81445 2 6.56445 2C5.31445 2 4.25179 2.43733 3.37645 3.312C2.50179 4.18733 2.06445 5.25 2.06445 6.5C2.06445 7.75 2.50179 8.81267 3.37645 9.688C4.25179 10.5627 5.31445 11 6.56445 11Z" fill="#F1F1F1"/>
</svg>
