<svg width="24" height="28" viewBox="0 0 24 28" fill="none" xmlns="http://www.w3.org/2000/svg">
<path d="M20 19.4452C18.9867 19.4452 18.08 19.8452 17.3867 20.4719L7.88 14.9385C7.94667 14.6319 8 14.3252 8 14.0052C8 13.6852 7.94667 13.3785 7.88 13.0719L17.28 7.59188C18 8.25854 18.9467 8.67188 20 8.67188C22.2133 8.67188 24 6.88521 24 4.67188C24 2.45854 22.2133 0.671875 20 0.671875C17.7867 0.671875 16 2.45854 16 4.67188C16 4.99188 16.0533 5.29854 16.12 5.60521L6.72 11.0852C6 10.4185 5.05333 10.0052 4 10.0052C1.78667 10.0052 0 11.7919 0 14.0052C0 16.2185 1.78667 18.0052 4 18.0052C5.05333 18.0052 6 17.5919 6.72 16.9252L16.2133 22.4719C16.1467 22.7519 16.1067 23.0452 16.1067 23.3385C16.1067 25.4852 17.8533 27.2319 20 27.2319C22.1467 27.2319 23.8933 25.4852 23.8933 23.3385C23.8933 21.1919 22.1467 19.4452 20 19.4452Z" fill="#F1F1F1"/>
</svg>
